<?xml version="1.0" encoding="utf-8"?>
<!-- Generator: Adobe Illustrator 25.2.1, SVG Export Plug-In . SVG Version: 6.00 Build 0)  -->
<svg version="1.1" id="Слой_1" xmlns="http://www.w3.org/2000/svg" xmlns:xlink="http://www.w3.org/1999/xlink" x="0px" y="0px"
	 viewBox="0 0 425.2 170.1" style="enable-background:new 0 0 425.2 170.1;" xml:space="preserve">
<style type="text/css">
	.st0{fill:url(#SVGID_1_);}
	.st1{fill:url(#SVGID_2_);}
	.st2{fill:url(#SVGID_3_);}
	.st3{fill:url(#SVGID_4_);}
	.st4{fill:url(#SVGID_5_);}
	.st5{fill:url(#SVGID_6_);}
	.st6{fill:#E30613;}
	.st7{fill:url(#SVGID_7_);}
	.st8{fill:url(#SVGID_8_);}
	.st9{fill:#FFFFFF;}
</style>
<g>
	<g>
		<linearGradient id="SVGID_1_" gradientUnits="userSpaceOnUse" x1="77.2729" y1="80.2208" x2="112.2987" y2="80.2208">
			<stop  offset="0" style="stop-color:#C70C0F"/>
			<stop  offset="0.5399" style="stop-color:#600B00"/>
			<stop  offset="0.6624" style="stop-color:#620B00"/>
			<stop  offset="0.7321" style="stop-color:#680D00"/>
			<stop  offset="0.7884" style="stop-color:#730E00"/>
			<stop  offset="0.8377" style="stop-color:#811000"/>
			<stop  offset="0.8824" style="stop-color:#941004"/>
			<stop  offset="0.9237" style="stop-color:#AA0F09"/>
			<stop  offset="0.9619" style="stop-color:#C40D0E"/>
			<stop  offset="0.9977" style="stop-color:#E10613"/>
			<stop  offset="1" style="stop-color:#E30613"/>
		</linearGradient>
		<path class="st0" d="M81.1,117.7c0.4-21.8,49.1-18,24-74.9C85.2,53.9,69.8,105,81.1,117.7z"/>
		<linearGradient id="SVGID_2_" gradientUnits="userSpaceOnUse" x1="69.685" y1="59.4669" x2="85.9759" y2="59.4669">
			<stop  offset="0" style="stop-color:#2471B8"/>
			<stop  offset="4.255642e-02" style="stop-color:#256CB2"/>
			<stop  offset="0.1054" style="stop-color:#275DA1"/>
			<stop  offset="0.1808" style="stop-color:#274888"/>
			<stop  offset="0.266" style="stop-color:#232D67"/>
			<stop  offset="0.3582" style="stop-color:#1B0E43"/>
			<stop  offset="0.3742" style="stop-color:#19083C"/>
			<stop  offset="0.4448" style="stop-color:#1B0D41"/>
			<stop  offset="0.5526" style="stop-color:#1E184E"/>
			<stop  offset="0.684" style="stop-color:#232A64"/>
			<stop  offset="0.8342" style="stop-color:#274686"/>
			<stop  offset="0.9982" style="stop-color:#2471B8"/>
			<stop  offset="1" style="stop-color:#2471B8"/>
		</linearGradient>
		<path class="st1" d="M71.8,74.8c4.9,2.4,21.4-12.6,10.5-30.9C68.8,53.2,67.7,66,71.8,74.8z"/>
		<linearGradient id="SVGID_3_" gradientUnits="userSpaceOnUse" x1="92.8011" y1="103.6969" x2="125.4185" y2="103.6969">
			<stop  offset="0" style="stop-color:#007D35"/>
			<stop  offset="0.2086" style="stop-color:#005A25"/>
			<stop  offset="0.2307" style="stop-color:#005F27"/>
			<stop  offset="0.3034" style="stop-color:#006D2D"/>
			<stop  offset="0.3756" style="stop-color:#007632"/>
			<stop  offset="0.4467" style="stop-color:#007B34"/>
			<stop  offset="0.5153" style="stop-color:#007D35"/>
			<stop  offset="0.7546" style="stop-color:#00491C"/>
			<stop  offset="1" style="stop-color:#007D35"/>
		</linearGradient>
		<path class="st2" d="M95.8,126c0.3-13.8,34-7.2,29.1-44.5C111.9,98.1,83.5,101.8,95.8,126z"/>
		<linearGradient id="SVGID_4_" gradientUnits="userSpaceOnUse" x1="58.7896" y1="96.4832" x2="110.6554" y2="48.4025">
			<stop  offset="0" style="stop-color:#E30613"/>
			<stop  offset="0.6871" style="stop-color:#CF1619"/>
			<stop  offset="0.7399" style="stop-color:#CC1619"/>
			<stop  offset="0.7983" style="stop-color:#C31717"/>
			<stop  offset="0.8595" style="stop-color:#B41715"/>
			<stop  offset="0.9224" style="stop-color:#9F1611"/>
			<stop  offset="0.9863" style="stop-color:#84150B"/>
			<stop  offset="1" style="stop-color:#7E1409"/>
		</linearGradient>
		<path class="st3" d="M109.3,58.4c0-13.2-8.4-24.6-18.9-28.8c-1.1-0.5-2.3-0.9-3.5-1.2c0,0,2.6,8,2.6,14.4
			c0,25.9-20.7,28-20.7,52.9c0,9.6,4.9,18.4,12.1,21.8c0.1,0,0.2,0,0.2,0.1c-0.5-1.8-0.7-3.1-0.7-5.1C80.4,94.6,109.3,89,109.3,58.4
			z"/>
		<linearGradient id="SVGID_5_" gradientUnits="userSpaceOnUse" x1="64.7743" y1="105.7215" x2="126.1657" y2="89.6416">
			<stop  offset="0" style="stop-color:#52AE32"/>
			<stop  offset="0.1293" style="stop-color:#65B32E"/>
			<stop  offset="0.312" style="stop-color:#72B62B"/>
			<stop  offset="0.5399" style="stop-color:#76B82A"/>
			<stop  offset="0.5891" style="stop-color:#6FB22A"/>
			<stop  offset="0.6694" style="stop-color:#5AA22B"/>
			<stop  offset="0.7708" style="stop-color:#3A8929"/>
			<stop  offset="0.8881" style="stop-color:#016722"/>
			<stop  offset="1" style="stop-color:#004316"/>
		</linearGradient>
		<path class="st4" d="M119.2,67c-0.9-1.1-1.9-2.2-3.1-3.2c-4,29.7-28.5,33.8-28.5,49.8c0,5.1,3.6,10.5,8.3,12.3
			c-0.1-0.4-0.2-0.8-0.3-1.2c-0.1-0.4-0.1-0.8-0.1-1.4c0-10,29.6-13.2,29.6-39.3C125.2,78.2,123.2,71.9,119.2,67z"/>
		<linearGradient id="SVGID_6_" gradientUnits="userSpaceOnUse" x1="66.7308" y1="71.5917" x2="82.5382" y2="35.8373">
			<stop  offset="0.1104" style="stop-color:#11A0DC"/>
			<stop  offset="0.5153" style="stop-color:#006EB8"/>
			<stop  offset="0.6376" style="stop-color:#0071BA"/>
			<stop  offset="0.7515" style="stop-color:#0078C0"/>
			<stop  offset="0.8621" style="stop-color:#0086CA"/>
			<stop  offset="0.97" style="stop-color:#0099D7"/>
			<stop  offset="1" style="stop-color:#11A0DC"/>
		</linearGradient>
		<path class="st5" d="M77.3,38.6c-1.3-0.7-2.7-1.1-4.1-1.2c0,0,1.4,2.5,1.4,5.4c0,9.2-8.7,12.7-8.7,22c0,4.4,2.4,8,5.8,10.1
			c0.1-0.6,0.1-1.1,0.2-1.6c0-0.2,0.1-0.4,0.1-0.5c2-6.5,11.5-13.7,11.5-23.8C83.7,44.4,81,40.5,77.3,38.6z"/>
		<path class="st6" d="M80.1,107.7c0.8-5.2,5.4-11.6,10.1-16.3c6.2-6.2,16.3-16.5,18.7-29.5C108.1,75.9,97,88,88.9,95.7
			C85.5,98.9,82.3,103.6,80.1,107.7z"/>
		<linearGradient id="SVGID_7_" gradientUnits="userSpaceOnUse" x1="94.7865" y1="109.8644" x2="122.3749" y2="109.8644">
			<stop  offset="0" style="stop-color:#52AE32"/>
			<stop  offset="0.1293" style="stop-color:#65B32E"/>
			<stop  offset="0.312" style="stop-color:#72B62B"/>
			<stop  offset="0.5399" style="stop-color:#76B82A"/>
			<stop  offset="0.5891" style="stop-color:#6FB22A"/>
			<stop  offset="0.6694" style="stop-color:#5AA22B"/>
			<stop  offset="0.7708" style="stop-color:#3A8929"/>
			<stop  offset="0.8881" style="stop-color:#016722"/>
			<stop  offset="1" style="stop-color:#004316"/>
		</linearGradient>
		<path class="st7" d="M95.5,124.9c-2.5-4.1,2.7-9,7.5-12.2c4.3-2.8,14.8-7.8,19.4-18c-4.8,12-16.2,16.6-21.4,20.4
			C98.8,116.8,94.1,120.9,95.5,124.9z"/>
		<linearGradient id="SVGID_8_" gradientUnits="userSpaceOnUse" x1="71.7804" y1="62.4283" x2="83.3007" y2="62.4283">
			<stop  offset="0.1104" style="stop-color:#11A0DC"/>
			<stop  offset="0.5153" style="stop-color:#006EB8"/>
			<stop  offset="0.6376" style="stop-color:#0071BA"/>
			<stop  offset="0.7515" style="stop-color:#0078C0"/>
			<stop  offset="0.8621" style="stop-color:#0086CA"/>
			<stop  offset="0.97" style="stop-color:#0099D7"/>
			<stop  offset="1" style="stop-color:#11A0DC"/>
		</linearGradient>
		<path class="st8" d="M71.8,73.7c-0.1-5.5,5.6-12.3,7.8-15.3c2.8-3.8,3.5-6.1,3.8-7.4c-0.6,4.3-3.5,8.3-6.2,12.4
			C75.8,65.4,72.4,69.2,71.8,73.7z"/>
	</g>
	<g>
		<g>
			<path class="st9" d="M139.7,112.6c3.7,3.3,7.2,5.3,12.3,5.3c2.8,0,7.9-1.2,7.9-4.9c0-2.1-1.6-3.2-4.8-3.8l-8.8-1.4
				c-7.9-1.3-12.2-5.4-12.2-11.7c0-10.3,8.3-14.5,17.4-14.5c7.1,0,14,2.9,18.8,8.2l-8.1,5.8c-2.8-3.4-6.9-5.4-11.4-5.4
				c-2.5,0-6,1.6-6,4.3c0,2.3,1.8,3.4,5.9,4.1l4.1,0.7c8.5,1.4,15.5,4,15.5,12.1c0,12.8-11.5,15.2-19.5,15.2c-7.2,0-14-2.3-19.8-8.7
				L139.7,112.6z"/>
			<path class="st9" d="M196.4,126.5c-13.6,0-21.5-10.5-21.5-22.5c0-11.9,7.9-22.5,21.5-22.5c13.6,0,21.5,10.5,21.5,22.5
				C217.9,116,210,126.5,196.4,126.5z M196.4,90.5c-6.2,0-10.9,3.9-10.9,13.5c0,6.2,2.5,13.5,10.9,13.5c7.9,0,10.9-6.9,10.9-13.5
				C207.3,97.3,204.3,90.5,196.4,90.5z"/>
			<path class="st9" d="M252.7,96.9c-1.5-3.9-5.1-6.4-8.8-6.4c-5.9,0-10.5,3.9-10.5,13.5c0,6.2,2.5,13.5,10.9,13.5
				c2.9,0,7.1-2.2,8.7-6l8.4,4.1c-3.7,6.6-10,10.9-17.2,10.9c-13.6,0-21.5-10.5-21.5-22.5c0-11.9,7.4-22.5,20.7-22.5
				c8.4,0,13.9,4.1,17.8,11.1L252.7,96.9z"/>
			<path class="st9" d="M277.9,82.8h11l16.1,42.5h-11.4l-2.1-6.7h-15.7l-2.2,6.7h-11.3L277.9,82.8z M288.9,110.7l-5.3-17.6h-0.1
				l-5.3,17.6H288.9z"/>
			<path class="st9" d="M309.2,82.8h21.3c9.6,0,15.4,4.4,15.4,14c0,5.5-3.5,9.9-8.8,11.5l9.7,17.1H335l-8.4-15.3h-6.8v15.3h-10.6
				V82.8z M319.9,102.1h9.7c3.4-0.1,5.7-1.8,5.7-5.7c0-3.9-2.3-5.7-5.7-5.7h-9.7V102.1z"/>
		</g>
	</g>
</g>
</svg>
