<?xml version="1.0" encoding="utf-8"?>
<!-- Generator: Adobe Illustrator 25.2.1, SVG Export Plug-In . SVG Version: 6.00 Build 0)  -->
<svg version="1.1" id="Слой_1" xmlns="http://www.w3.org/2000/svg" xmlns:xlink="http://www.w3.org/1999/xlink" x="0px" y="0px"
	 viewBox="0 0 280.9 98.2" style="enable-background:new 0 0 280.9 98.2;" xml:space="preserve">
<style type="text/css">
	.st0{fill:url(#SVGID_1_);}
	.st1{fill:url(#SVGID_2_);}
	.st2{fill:url(#SVGID_3_);}
	.st3{fill:url(#SVGID_4_);}
	.st4{fill:url(#SVGID_5_);}
	.st5{fill:url(#SVGID_6_);}
	.st6{fill:#E30613;}
	.st7{fill:url(#SVGID_7_);}
	.st8{fill:url(#SVGID_8_);}
	.st9{fill:#FFFFFF;}
</style>
<g>
	<g>
		
			<linearGradient id="SVGID_1_" gradientUnits="userSpaceOnUse" x1="11.3689" y1="63.35" x2="46.3841" y2="63.35" gradientTransform="matrix(1 0 0 -1 0 115.2)">
			<stop  offset="0" style="stop-color:#C70C0F"/>
			<stop  offset="0.5399" style="stop-color:#600B00"/>
			<stop  offset="0.6624" style="stop-color:#620B00"/>
			<stop  offset="0.7321" style="stop-color:#680D00"/>
			<stop  offset="0.7884" style="stop-color:#730E00"/>
			<stop  offset="0.8377" style="stop-color:#811000"/>
			<stop  offset="0.8824" style="stop-color:#941004"/>
			<stop  offset="0.9237" style="stop-color:#AA0F09"/>
			<stop  offset="0.9619" style="stop-color:#C40D0E"/>
			<stop  offset="0.9977" style="stop-color:#E10613"/>
			<stop  offset="1" style="stop-color:#E30613"/>
		</linearGradient>
		<path class="st0" d="M15.2,89.3c0.4-21.8,49.1-18,24-74.9C19.3,25.5,3.9,76.6,15.2,89.3z"/>
		
			<linearGradient id="SVGID_2_" gradientUnits="userSpaceOnUse" x1="3.7972" y1="84.1234" x2="20.0881" y2="84.1234" gradientTransform="matrix(1 0 0 -1 0 115.2)">
			<stop  offset="0" style="stop-color:#2471B8"/>
			<stop  offset="4.255642e-02" style="stop-color:#256CB2"/>
			<stop  offset="0.1054" style="stop-color:#275DA1"/>
			<stop  offset="0.1808" style="stop-color:#274888"/>
			<stop  offset="0.266" style="stop-color:#232D67"/>
			<stop  offset="0.3582" style="stop-color:#1B0E43"/>
			<stop  offset="0.3742" style="stop-color:#19083C"/>
			<stop  offset="0.4448" style="stop-color:#1B0D41"/>
			<stop  offset="0.5526" style="stop-color:#1E184E"/>
			<stop  offset="0.684" style="stop-color:#232A64"/>
			<stop  offset="0.8342" style="stop-color:#274686"/>
			<stop  offset="0.9982" style="stop-color:#2471B8"/>
			<stop  offset="1" style="stop-color:#2471B8"/>
		</linearGradient>
		<path class="st1" d="M5.9,46.4c4.9,2.4,21.4-12.6,10.5-30.9C2.9,24.8,1.8,37.6,5.9,46.4z"/>
		
			<linearGradient id="SVGID_3_" gradientUnits="userSpaceOnUse" x1="26.8799" y1="39.85" x2="59.4868" y2="39.85" gradientTransform="matrix(1 0 0 -1 0 115.2)">
			<stop  offset="0" style="stop-color:#007D35"/>
			<stop  offset="0.2086" style="stop-color:#005A25"/>
			<stop  offset="0.2307" style="stop-color:#005F27"/>
			<stop  offset="0.3034" style="stop-color:#006D2D"/>
			<stop  offset="0.3756" style="stop-color:#007632"/>
			<stop  offset="0.4467" style="stop-color:#007B34"/>
			<stop  offset="0.5153" style="stop-color:#007D35"/>
			<stop  offset="0.7546" style="stop-color:#00491C"/>
			<stop  offset="1" style="stop-color:#007D35"/>
		</linearGradient>
		<path class="st2" d="M29.9,97.6c0.3-13.8,34-7.2,29.1-44.5C46,69.7,17.6,73.4,29.9,97.6z"/>
		
			<linearGradient id="SVGID_4_" gradientUnits="userSpaceOnUse" x1="-7.1666" y1="47.1774" x2="44.6623" y2="95.2238" gradientTransform="matrix(1 0 0 -1 0 115.2)">
			<stop  offset="0" style="stop-color:#E30613"/>
			<stop  offset="0.6871" style="stop-color:#CF1619"/>
			<stop  offset="0.7399" style="stop-color:#CC1619"/>
			<stop  offset="0.7983" style="stop-color:#C31717"/>
			<stop  offset="0.8595" style="stop-color:#B41715"/>
			<stop  offset="0.9224" style="stop-color:#9F1611"/>
			<stop  offset="0.9863" style="stop-color:#84150B"/>
			<stop  offset="1" style="stop-color:#7E1409"/>
		</linearGradient>
		<path class="st3" d="M43.4,30c0-13.2-8.4-24.6-18.9-28.8C23.4,0.7,22.2,0.3,21,0c0,0,2.6,8,2.6,14.4c0,25.9-20.7,28-20.7,52.9
			c0,9.6,4.9,18.4,12.1,21.8c0.1,0,0.2,0,0.2,0.1c-0.5-1.8-0.7-3.1-0.7-5.1C14.5,66.2,43.4,60.6,43.4,30z"/>
		
			<linearGradient id="SVGID_5_" gradientUnits="userSpaceOnUse" x1="-1.1437" y1="37.9473" x2="60.2477" y2="54.0272" gradientTransform="matrix(1 0 0 -1 0 115.2)">
			<stop  offset="0" style="stop-color:#52AE32"/>
			<stop  offset="0.1293" style="stop-color:#65B32E"/>
			<stop  offset="0.312" style="stop-color:#72B62B"/>
			<stop  offset="0.5399" style="stop-color:#76B82A"/>
			<stop  offset="0.5891" style="stop-color:#6FB22A"/>
			<stop  offset="0.6694" style="stop-color:#5AA22B"/>
			<stop  offset="0.7708" style="stop-color:#3A8929"/>
			<stop  offset="0.8881" style="stop-color:#016722"/>
			<stop  offset="1" style="stop-color:#004316"/>
		</linearGradient>
		<path class="st4" d="M53.3,38.6c-0.9-1.1-1.9-2.2-3.1-3.2c-4,29.7-28.5,33.8-28.5,49.8c0,5.1,3.6,10.5,8.3,12.3
			c-0.1-0.4-0.2-0.8-0.3-1.2c-0.1-0.4-0.1-0.8-0.1-1.4c0-10,29.6-13.2,29.6-39.3C59.3,49.8,57.3,43.5,53.3,38.6z"/>
		
			<linearGradient id="SVGID_6_" gradientUnits="userSpaceOnUse" x1="0.7249" y1="72.0551" x2="16.5323" y2="107.8095" gradientTransform="matrix(1 0 0 -1 0 115.2)">
			<stop  offset="0.1104" style="stop-color:#11A0DC"/>
			<stop  offset="0.5153" style="stop-color:#006EB8"/>
			<stop  offset="0.6376" style="stop-color:#0071BA"/>
			<stop  offset="0.7515" style="stop-color:#0078C0"/>
			<stop  offset="0.8621" style="stop-color:#0086CA"/>
			<stop  offset="0.97" style="stop-color:#0099D7"/>
			<stop  offset="1" style="stop-color:#11A0DC"/>
		</linearGradient>
		<path class="st5" d="M11.4,10.2C10.1,9.5,8.7,9.1,7.3,9c0,0,1.4,2.5,1.4,5.4c0,9.2-8.7,12.7-8.7,22c0,4.4,2.4,8,5.8,10.1
			c0.1-0.6,0.1-1.1,0.2-1.6c0-0.2,0.1-0.4,0.1-0.5c2-6.5,11.5-13.7,11.5-23.8C17.8,16,15.1,12.1,11.4,10.2z"/>
		<path class="st6" d="M14.2,79.3C15,74.1,19.6,67.7,24.3,63c6.2-6.2,16.3-16.5,18.7-29.5c-0.8,14-11.9,26.1-20,33.8
			C19.6,70.5,16.4,75.2,14.2,79.3z"/>
		
			<linearGradient id="SVGID_7_" gradientUnits="userSpaceOnUse" x1="28.8865" y1="33.8" x2="56.4749" y2="33.8" gradientTransform="matrix(1 0 0 -1 0 115.2)">
			<stop  offset="0" style="stop-color:#52AE32"/>
			<stop  offset="0.1293" style="stop-color:#65B32E"/>
			<stop  offset="0.312" style="stop-color:#72B62B"/>
			<stop  offset="0.5399" style="stop-color:#76B82A"/>
			<stop  offset="0.5891" style="stop-color:#6FB22A"/>
			<stop  offset="0.6694" style="stop-color:#5AA22B"/>
			<stop  offset="0.7708" style="stop-color:#3A8929"/>
			<stop  offset="0.8881" style="stop-color:#016722"/>
			<stop  offset="1" style="stop-color:#004316"/>
		</linearGradient>
		<path class="st7" d="M29.6,96.5c-2.5-4.1,2.7-9,7.5-12.2c4.3-2.8,14.8-7.8,19.4-18c-4.8,12-16.2,16.6-21.4,20.4
			C32.9,88.4,28.2,92.5,29.6,96.5z"/>
		
			<linearGradient id="SVGID_8_" gradientUnits="userSpaceOnUse" x1="5.8804" y1="81.25" x2="17.4007" y2="81.25" gradientTransform="matrix(1 0 0 -1 0 115.2)">
			<stop  offset="0.1104" style="stop-color:#11A0DC"/>
			<stop  offset="0.5153" style="stop-color:#006EB8"/>
			<stop  offset="0.6376" style="stop-color:#0071BA"/>
			<stop  offset="0.7515" style="stop-color:#0078C0"/>
			<stop  offset="0.8621" style="stop-color:#0086CA"/>
			<stop  offset="0.97" style="stop-color:#0099D7"/>
			<stop  offset="1" style="stop-color:#11A0DC"/>
		</linearGradient>
		<path class="st8" d="M5.9,45.3C5.8,39.8,11.5,33,13.7,30c2.8-3.8,3.5-6.1,3.8-7.4c-0.6,4.3-3.5,8.3-6.2,12.4
			C9.9,37,6.5,40.8,5.9,45.3z"/>
	</g>
	<g>
		<g>
			<path class="st9" d="M73.8,84.2c3.7,3.3,7.2,5.3,12.3,5.3c2.8,0,7.9-1.2,7.9-4.9c0-2.1-1.6-3.2-4.8-3.8l-8.8-1.4
				c-7.9-1.3-12.2-5.4-12.2-11.7c0-10.3,8.3-14.5,17.4-14.5c7.1,0,14,2.9,18.8,8.2l-8.1,5.8c-2.8-3.4-6.9-5.4-11.4-5.4
				c-2.5,0-6,1.6-6,4.3c0,2.3,1.8,3.4,5.9,4.1l4.1,0.7c8.5,1.4,15.5,4,15.5,12.1c0,12.8-11.5,15.2-19.5,15.2c-7.2,0-14-2.3-19.8-8.7
				L73.8,84.2z"/>
			<path class="st9" d="M130.5,98.1c-13.6,0-21.5-10.5-21.5-22.5c0-11.9,7.9-22.5,21.5-22.5S152,63.6,152,75.6
				S144.1,98.1,130.5,98.1z M130.5,62.1c-6.2,0-10.9,3.9-10.9,13.5c0,6.2,2.5,13.5,10.9,13.5c7.9,0,10.9-6.9,10.9-13.5
				C141.4,68.9,138.4,62.1,130.5,62.1z"/>
			<path class="st9" d="M186.8,68.5c-1.5-3.9-5.1-6.4-8.8-6.4c-5.9,0-10.5,3.9-10.5,13.5c0,6.2,2.5,13.5,10.9,13.5
				c2.9,0,7.1-2.2,8.7-6l8.4,4.1c-3.7,6.6-10,10.9-17.2,10.9c-13.6,0-21.5-10.5-21.5-22.5c0-11.9,7.4-22.5,20.7-22.5
				c8.4,0,13.9,4.1,17.8,11.1L186.8,68.5z"/>
			<path class="st9" d="M212,54.4h11l16.1,42.5h-11.4l-2.1-6.7h-15.7l-2.2,6.7h-11.3L212,54.4z M223,82.3l-5.3-17.6h-0.1l-5.3,17.6
				H223z"/>
			<path class="st9" d="M243.3,54.4h21.3c9.6,0,15.4,4.4,15.4,14c0,5.5-3.5,9.9-8.8,11.5l9.7,17.1h-11.8l-8.4-15.3h-6.8V97h-10.6
				V54.4z M254,73.7h9.7c3.4-0.1,5.7-1.8,5.7-5.7c0-3.9-2.3-5.7-5.7-5.7H254V73.7z"/>
		</g>
	</g>
</g>
</svg>
